HIERARCHY
ROOT hip
{
	OFFSET 0.000000 0.000000 0.000000 
	CHANNELS 6 Xposition Yposition Zposition Xrotation Zrotation Yrotation
	JOINT abdomen
	{
		OFFSET 0.000000 3.402643 0.000000 
		CHANNELS 3 Xrotation Zrotation Yrotation
		JOINT chest
		{
			OFFSET 0.000000 8.438565 -0.680529 
			CHANNELS 3 Xrotation Zrotation Yrotation
			JOINT neck
			{
				OFFSET 0.000000 10.207942 -0.272212 
				CHANNELS 3 Xrotation Zrotation Yrotation
				JOINT head
				{
					OFFSET 0.000000 3.130431 0.000000 
					CHANNELS 3 Xrotation Zrotation Yrotation
					End Site
					{
						OFFSET 0.000000 3.130435 0.000000 
					}
				}
			}
			JOINT lCollar
			{
				OFFSET 3.470700 6.669187 -0.816635 
				CHANNELS 3 Yrotation Zrotation Xrotation
				JOINT lShldr
				{
					OFFSET 3.198488 0.000000 0.000000 
					CHANNELS 3 Zrotation Yrotation Xrotation
					JOINT lForeArm
					{
						OFFSET 10.139888 0.000000 0.000000 
						CHANNELS 3 Yrotation Zrotation Xrotation
						JOINT lHand
						{
							OFFSET 8.370511 0.000000 0.000000 
							CHANNELS 3 Zrotation Yrotation Xrotation
							End Site
							{
								OFFSET 4.083176 0.000000 0.000000 
							}
						}
					}
				}
			}
			JOINT rCollar
			{
				OFFSET -3.470700 6.669187 -0.816635 
				CHANNELS 3 Yrotation Zrotation Xrotation
				JOINT rShldr
				{
					OFFSET -3.198488 0.000000 0.000000 
					CHANNELS 3 Zrotation Yrotation Xrotation
					JOINT rForeArm
					{
						OFFSET -10.139888 0.000000 0.000000 
						CHANNELS 3 Yrotation Zrotation Xrotation
						JOINT rHand
						{
							OFFSET -8.370511 0.000000 0.000000 
							CHANNELS 3 Zrotation Yrotation Xrotation
							End Site
							{
								OFFSET -4.083176 0.000000 0.000000 
							}
						}
					}
				}
			}
		}
	}
	JOINT lThigh
	{
		OFFSET 5.308129 -1.633274 1.361059 
		CHANNELS 3 Xrotation Zrotation Yrotation
		JOINT lShin
		{
			OFFSET -2.041588 -20.007561 0.000000 
			CHANNELS 3 Xrotation Zrotation Yrotation
			JOINT lFoot
			{
				OFFSET 0.000000 -19.190928 -1.224953 
				CHANNELS 3 Xrotation Yrotation Zrotation
				End Site
				{
					OFFSET 0.000000 -2.449906 4.627600 
				}
			}
		}
	}
	JOINT rThigh
	{
		OFFSET -5.308129 -1.633274 1.361059 
		CHANNELS 3 Xrotation Zrotation Yrotation
		JOINT rShin
		{
			OFFSET 2.041588 -20.007561 0.000000 
			CHANNELS 3 Xrotation Zrotation Yrotation
			JOINT rFoot
			{
				OFFSET 0.000000 -19.190928 -1.224953 
				CHANNELS 3 Xrotation Yrotation Zrotation
				End Site
				{
					OFFSET 0.000000 -2.449906 4.627600 
				}
			}
		}
	}
}
MOTION
Frames: 14
Frame Time: 0.016667
0.246955 49.377060 0.982436 -7.585114 3.256833 3.140239 19.136322 -3.834886 -2.271000 -24.994379 -2.050724 -0.430111 6.133816 6.554976 -11.963122 10.248904 14.639338 -11.985155 -1.386812 -0.546639 -0.009762 -68.172684 -33.752502 63.745686 -76.743759 -4.949524 -86.939255 -36.647659 20.825438 -14.823215 10.859262 -0.675668 -0.009590 75.620003 28.292936 40.386673 103.022377 2.973176 -35.923248 33.782814 -13.454889 -8.860516 2.781681 3.065325 22.387119 17.035112 -1.591839 -1.698351 -16.177891 -32.492340 -21.300917 1.302325 -19.300005 -42.066067 24.271088 1.320850 2.117876 -8.080080 -8.229454 10.832796 
0.256946 49.375332 0.996995 -7.642914 3.324710 3.257801 19.193329 -3.922520 -2.339871 -24.905489 -2.001886 -0.469146 6.074752 6.578613 -12.170141 10.176565 14.426751 -12.204739 -1.416106 -0.527102 -0.009762 -68.209618 -33.782104 63.695278 -76.654602 -4.947731 -87.071465 -36.755177 20.899336 -14.926900 10.888553 -0.714735 -0.009589 75.602020 28.369356 40.392406 103.040627 2.986282 -36.005589 33.732235 -13.645612 -8.965151 2.878474 2.946810 22.146128 16.916615 -1.601611 -1.693411 -16.277445 -32.331501 -21.298298 1.411465 -19.400253 -42.177921 24.329370 1.320885 2.130611 -8.116195 -8.272642 10.832730 
0.266898 49.373619 1.011602 -7.690674 3.402339 3.365618 19.259218 -4.000410 -2.399009 -24.826681 -1.962817 -0.498424 6.015499 6.602120 -12.378284 10.108337 14.214808 -12.415052 -1.445401 -0.517332 -0.009762 -68.252861 -33.824394 63.653225 -76.555710 -4.945882 -87.202827 -36.852764 20.975498 -15.027350 10.917841 -0.763568 -0.009588 75.584007 28.445776 40.398106 103.055878 2.979824 -36.094307 33.693256 -13.843165 -9.076981 2.965257 2.839041 21.886663 16.809126 -1.601698 -1.678011 -16.377966 -32.178185 -21.337242 1.520427 -19.499176 -42.299675 24.377880 1.320912 2.142843 -8.161046 -8.292584 10.822658 
0.264976 49.372677 1.042283 -7.872172 3.451014 3.385116 19.432961 -4.117376 -2.437982 -24.740101 -1.777274 -0.508174 6.057549 6.600639 -12.436468 9.715065 14.122128 -12.542751 -1.504000 -0.546619 -0.009762 -68.319260 -33.800858 63.551624 -76.467346 -4.941193 -87.235519 -37.026794 21.015417 -15.145113 10.956872 -0.958887 -0.009586 75.701118 28.401417 40.401882 103.045631 2.980464 -35.960522 33.781300 -13.821170 -9.092727 3.169845 2.760492 21.478342 16.758881 -1.611354 -1.686379 -16.411242 -31.772793 -21.273939 1.723182 -19.545355 -42.281944 24.456541 1.311204 2.144957 -8.225026 -8.344468 10.806161 
0.263031 49.371731 1.072964 -8.052456 3.509400 3.414955 19.606443 -4.224578 -2.477655 -24.653498 -1.601497 -0.517922 6.102855 6.589864 -12.486081 9.324635 14.029991 -12.658630 -1.572366 -0.585670 -0.009761 -68.394485 -33.759949 63.463898 -76.388474 -4.948859 -87.276253 -37.200924 21.054873 -15.263198 10.986133 -1.163970 -0.009585 75.821846 28.349995 40.421680 103.037987 2.969492 -35.834152 33.869331 -13.799157 -9.108425 3.385025 2.673239 21.058506 16.739271 -1.611357 -1.685346 -16.475300 -31.384804 -21.204439 1.941265 -19.598364 -42.256458 24.534729 1.311089 2.148940 -8.292098 -8.436032 10.771858 
0.253874 49.370689 1.103386 -8.276444 3.489796 3.444196 19.822557 -4.253848 -2.477655 -24.547215 -1.503847 -0.508150 6.010694 6.636787 -12.516295 9.042809 14.083954 -12.722500 -1.640730 -0.614955 -0.009761 -68.376144 -33.766609 63.402496 -76.310661 -4.950601 -87.167709 -37.392368 20.930929 -15.279966 11.113078 -1.212820 -0.009580 75.780930 28.259893 40.336040 103.053337 2.942209 -35.465137 33.843643 -13.453970 -8.879435 3.499961 2.720397 20.744493 17.013760 -1.611412 -1.699829 -16.483126 -31.045717 -21.093008 2.180820 -19.505474 -42.121918 24.544504 1.311120 2.149447 -8.329138 -8.599309 10.749709 
0.244736 49.369667 1.133760 -8.491280 3.460445 3.473436 20.048014 -4.273360 -2.477656 -24.431133 -1.406197 -0.498376 5.928248 6.683697 -12.546511 8.756171 14.146856 -12.795836 -1.718860 -0.644238 -0.009761 -68.349556 -33.769779 63.329693 -76.223038 -4.958725 -87.046509 -37.585926 20.814838 -15.305149 11.240234 -1.259766 0.000000 75.731537 28.176008 40.250580 103.074806 2.912042 -35.103817 33.809509 -13.110265 -8.650462 3.609004 2.790133 20.432974 17.298500 -1.601927 -1.723323 -16.485889 -30.720713 -21.017601 2.435791 -19.428093 -41.979855 24.544855 1.311147 2.139735 -8.381504 -8.748342 10.720326 
0.242157 49.376999 1.149055 -8.606097 3.470084 3.502680 20.196194 -4.312386 -2.478390 -24.412508 -1.328077 -0.488603 5.830591 6.683697 -12.546511 8.667727 14.232561 -12.800618 -1.806757 -0.683286 -0.009760 -68.309860 -33.719543 63.263535 -76.165474 -4.956445 -86.880394 -37.819412 20.613907 -15.293119 11.376729 -1.339817 -0.009571 75.717583 28.036100 40.180763 103.060440 2.874250 -34.581604 33.782898 -12.555224 -8.275834 3.734261 2.730889 19.979418 17.269022 -1.614622 -1.694235 -16.394913 -30.237965 -20.853682 2.607311 -19.404537 -41.969372 24.485052 1.327705 2.149703 -8.311775 -8.829217 10.717907 
0.239595 49.384315 1.164316 -8.721499 3.479759 3.522176 20.354879 -4.351380 -2.488133 -24.384008 -1.259722 -0.478829 5.742701 6.683697 -12.546511 8.586546 14.317720 -12.814876 -1.884889 -0.722335 -0.009760 -68.265015 -33.677998 63.197357 -76.108040 -4.953834 -86.714279 -38.052757 20.413443 -15.279690 11.513436 -1.408199 -0.009566 75.707085 27.889015 40.122448 103.047150 2.835969 -34.058071 33.763676 -11.989544 -7.918848 3.864510 2.693673 19.557219 17.239183 -1.611665 -1.711759 -16.315105 -29.774069 -20.699671 2.780443 -19.362957 -41.958336 24.397068 1.320966 2.153575 -8.271678 -8.888783 10.702663 
0.242147 49.384682 1.169000 -8.775295 3.508815 3.571509 20.454235 -4.390406 -2.488137 -24.413631 -1.220661 -0.478823 5.670069 6.702762 -12.547648 8.557249 14.317720 -12.814876 -1.855600 -0.771168 -0.009760 -68.291679 -33.727230 63.335827 -76.022057 -4.956435 -86.453285 -38.310829 20.001381 -15.132878 11.513431 -1.447262 -0.009566 75.716949 27.834557 40.149067 103.006248 2.806524 -33.607254 33.763935 -11.410735 -7.546790 3.912436 2.654765 19.462738 17.278471 -1.614662 -1.704490 -16.477478 -29.632160 -20.752422 2.858136 -19.402111 -42.041637 24.426868 1.311190 2.153170 -8.247410 -8.847420 10.713059 
0.244707 49.385044 1.173670 -8.819880 3.537904 3.610499 20.554348 -4.429399 -2.497876 -24.433693 -1.181601 -0.468852 5.595300 6.731358 -12.548789 8.530189 14.308197 -12.814878 -1.816546 -0.820003 -0.009760 -68.314011 -33.785305 63.468475 -75.936523 -4.955904 -86.182808 -38.559746 19.593855 -14.975712 11.503658 -1.486323 -0.009566 75.723305 27.787237 40.164268 102.959221 2.769967 -33.146469 33.769135 -10.840562 -7.179303 3.961175 2.624969 19.388836 17.318439 -1.602080 -1.714645 -16.635733 -29.493343 -20.824118 2.918049 -19.442205 -42.112648 24.456539 1.311226 2.144961 -8.223747 -8.783727 10.732009 
0.249328 49.385605 1.174537 -8.786923 3.557243 3.650092 20.574732 -4.448911 -2.497877 -24.482878 -1.162072 -0.459088 5.574617 6.731103 -12.558484 8.522409 14.288606 -12.824328 -1.806790 -0.878598 -0.009760 -68.281029 -33.824451 63.553886 -75.888382 -4.947908 -86.119385 -38.718884 19.398542 -14.918675 11.484132 -1.457023 -0.009567 75.653404 27.761759 40.188473 102.938919 2.743387 -32.774162 33.728821 -10.276720 -6.804146 3.983122 2.577534 19.304077 17.219927 -1.611685 -1.700995 -16.661074 -29.418447 -20.824080 2.914220 -19.467398 -42.174538 24.466312 1.311234 2.145463 -8.208733 -8.767283 10.730367 
0.253932 49.386139 1.175414 -8.753922 3.586363 3.679335 20.594355 -4.468457 -2.488142 -24.522291 -1.142543 -0.449324 5.555086 6.731104 -12.558484 8.507353 14.269561 -12.821918 -1.787269 -0.937195 -0.009760 -68.248840 -33.863842 63.644562 -75.830269 -4.948606 -86.053589 -38.868130 19.206240 -14.860634 11.454838 -1.437486 -0.009568 75.585915 27.738750 40.226616 102.919701 2.715101 -32.411804 33.693279 -9.720942 -6.436074 3.995537 2.524537 19.229177 17.121212 -1.611696 -1.715287 -16.669989 -29.344715 -20.806719 2.899163 -19.500942 -42.224728 24.466312 1.311226 2.145462 -8.188781 -8.765617 10.742623 
0.252836 49.377747 1.179002 -8.756412 3.557165 3.669586 20.640894 -4.468555 -2.458934 -24.592022 -1.035128 -0.420030 5.644735 6.597906 -12.544267 8.397774 14.286962 -12.855082 -1.738464 -1.073923 -0.009759 -68.241585 -33.940044 63.798569 -75.752457 -4.950199 -85.994728 -38.985828 18.900600 -14.701723 11.425536 -1.466778 -0.009569 75.525444 27.740295 40.272194 102.861694 2.705809 -32.226299 33.594120 -9.369666 -6.185079 4.016427 2.535265 19.190123 17.052950 -1.611612 -1.701923 -16.719610 -29.356255 -20.819532 2.877440 -19.479813 -42.151028 24.535202 1.301314 2.147021 -8.176017 -8.817149 10.740348 
